<?xml version="1.0" encoding="UTF-8"?>
<svg version="1.1" xmlns="http://www.w3.org/2000/svg" width="1408" height="736">
<path d="M0 0 C1.07765625 0.15210937 2.1553125 0.30421875 3.265625 0.4609375 C5.50422867 0.78452713 7.74120142 1.11956487 9.9765625 1.46484375 C15.10814452 2.19773688 20.27297794 2.57685639 25.4375 3 C33.20440557 3.63636411 40.87858304 4.46545875 48.59375 5.56640625 C52.08415948 6.01071296 55.55129909 6.27860791 59.0625 6.5 C63.57042321 6.78613766 67.97397215 7.24709821 72.4375 7.9375 C78.77571036 8.90216561 85.11103581 9.47774836 91.5 10 C97.65917859 10.50386563 103.76730677 11.03483366 109.875 12 C117.55635471 13.19404167 125.28551473 13.72477798 133.03271484 14.30273438 C139.04075449 14.75147545 145.01649019 15.30091468 151 16 C153.07408386 16.22908912 155.14831507 16.45684642 157.22265625 16.68359375 C161.91372236 17.1987581 166.60356527 17.72383289 171.29296875 18.25390625 C175.14754439 18.68876215 179.00110339 19.10404051 182.86328125 19.46484375 C195.76352259 20.726544 205.98762281 23.5987537 214.96875 33.3671875 C219.54404554 39.29747441 222.12166711 45.94279681 222.1328125 53.44921875 C222.13410156 54.29806641 222.13539063 55.14691406 222.13671875 56.02148438 C222.13285156 56.90126953 222.12898438 57.78105469 222.125 58.6875 C222.12886719 59.54794922 222.13273437 60.40839844 222.13671875 61.29492188 C222.12937328 66.16864279 221.8709462 70.9147924 221.27197266 75.75073242 C220.98936521 78.08795182 220.77233548 80.42403025 220.5703125 82.76953125 C216.82156487 125.72322441 216.82156487 125.72322441 204.5703125 137.01953125 C200.04217291 140.5085385 195.16346291 143.41510651 190.27734375 146.37109375 C183.31074189 150.60414577 176.67275276 155.323235 170 160 C169.28634277 160.49822266 168.57268555 160.99644531 167.83740234 161.50976562 C144.59501932 177.74385077 122.30709139 195.15113655 100.7265625 213.53222656 C98.93592528 215.05447076 97.14001437 216.57033944 95.34375 218.0859375 C89.66011316 222.89824961 84.09556459 227.70948632 78.92333984 233.07910156 C77.09267259 234.90744504 75.20205998 236.58390025 73.23046875 238.2578125 C69.13876003 241.81498055 65.38059249 245.59662785 61.6875 249.5625 C60.71756104 250.60241089 60.71756104 250.60241089 59.72802734 251.66333008 C53.74861847 258.14928051 48.24061113 264.9080406 43 272 C41.83210937 273.56621094 41.83210937 273.56621094 40.640625 275.1640625 C25.32504977 296.44743083 16.12695025 319.42353215 20 346 C20.92385045 349.92516773 22.2426586 353.37795551 24 357 C24.41121094 357.89847656 24.82242188 358.79695313 25.24609375 359.72265625 C37.58913561 384.58357059 66.07051142 398.04965623 91 407 C92.50747803 407.54164795 92.50747803 407.54164795 94.04541016 408.09423828 C100.11850932 410.26872558 106.19798914 412.42443598 112.28125 414.5703125 C114.6875 415.421875 117.09375 416.2734375 119.5 417.125 C121.33304688 417.76888672 121.33304688 417.76888672 123.203125 418.42578125 C124.97429687 419.05419922 124.97429687 419.05419922 126.78125 419.6953125 C128.3600293 420.2524292 128.3600293 420.2524292 129.97070312 420.82080078 C139.72504881 424.61782606 147.89399015 431.20018818 152.28125 440.91796875 C154.14855469 446.32706332 155.25184856 451.12305014 155.2746582 456.86230469 C155.27976913 457.50890045 155.28488007 458.15549622 155.29014587 458.82168579 C155.30393331 460.93851235 155.30309279 463.05500914 155.30078125 465.171875 C155.30467536 466.66009641 155.30901149 468.14831673 155.31376648 469.63653564 C155.32120633 472.74991462 155.32095462 475.86318017 155.31567383 478.9765625 C155.30989529 482.93820513 155.32678159 486.89937777 155.3500185 490.86094284 C155.3648581 493.93417002 155.36561354 497.00728684 155.36250877 500.08054352 C155.3630173 501.53957293 155.36816557 502.9986093 155.37832069 504.45760345 C155.44205913 514.89838776 154.8954243 525.09976304 149.3125 534.25 C148.87550781 534.99765625 148.43851563 535.7453125 147.98828125 536.515625 C141.41116034 544.73379572 133.41177691 548.37864113 123.8125 552.125 C122.56126093 552.62744435 121.3106055 553.13134466 120.06054688 553.63671875 C113.07798193 556.44694589 106.04967733 559.13849177 99.02075195 561.83007812 C96.21472808 562.91683691 93.42326372 564.03233207 90.63671875 565.16796875 C89.40018555 565.67166992 89.40018555 565.67166992 88.13867188 566.18554688 C86.48371477 566.86203532 84.8300956 567.54180485 83.17773438 568.22460938 C69.30720533 573.85370509 57.93984652 573.39707085 43.1875 571.125 C42.01896484 570.95097656 40.85042969 570.77695312 39.64648438 570.59765625 C37.28154189 570.24545853 34.91703787 569.89030414 32.55297852 569.53222656 C29.00897241 569.00134404 25.46234093 568.493652 21.9140625 567.9921875 C14.28089671 566.90805516 6.66614865 565.71435144 -0.94726562 564.5 C-3.11570926 564.16089092 -5.28671176 563.8378287 -7.4597168 563.52929688 C-9.97838692 563.15273824 -12.44489824 562.72382601 -14.94067383 562.23632812 C-26.81606144 560.11816146 -35.83446753 562.54581429 -47.0625 566.5 C-48.67931533 567.03953431 -50.2971566 567.57600407 -51.91601562 568.109375 C-60.19792438 570.86484267 -68.38692349 573.85507546 -76.54721069 576.9500885 C-81.72111753 578.91040213 -86.92803442 580.72231604 -92.1875 582.4375 C-93.95972266 583.02056821 -95.73185518 583.60391049 -97.50390625 584.1875 C-98.39867676 584.48140625 -99.29344727 584.7753125 -100.21533203 585.078125 C-103.11580083 586.03833631 -106.00957485 587.01684917 -108.90234375 588 C-109.86052002 588.32427979 -110.81869629 588.64855957 -111.8059082 588.98266602 C-113.65061181 589.6074721 -115.49424803 590.23544069 -117.33666992 590.86694336 C-118.16658447 591.14675049 -118.99649902 591.42655762 -119.8515625 591.71484375 C-120.58197754 591.96355225 -121.31239258 592.21226074 -122.06494141 592.46850586 C-124 593 -124 593 -127 593 C-127.21390381 593.86806274 -127.21390381 593.86806274 -127.43212891 594.75366211 C-129.66015669 603.36106484 -132.55575182 611.70861945 -135.50585938 620.08862305 C-136.37356896 622.55842677 -137.23000914 625.0319519 -138.0859375 627.50585938 C-143.17506669 642.0944763 -148.05360231 656.05885754 -162.625 663.75 C-167.99275557 666.13749864 -173.525045 668.13111832 -179.0390625 670.15234375 C-185.14515131 672.40563016 -191.19488875 674.80134566 -197.25 677.1875 C-198.43907959 677.65502686 -199.62815918 678.12255371 -200.85327148 678.60424805 C-206.46893809 680.81394199 -212.08181016 683.03015584 -217.68777466 685.264328 C-219.56237698 686.01090889 -221.43779186 686.75541064 -223.31347656 687.49926758 C-225.65172442 688.42722622 -227.98843535 689.35907149 -230.32324219 690.2956543 C-247.84959901 697.23939253 -260.82975277 700.6052491 -279 694 C-283.21610839 692.14578488 -287.29275767 690.06802369 -291.375 687.9375 C-293.67493303 686.76266091 -295.97572995 685.58951164 -298.27734375 684.41796875 C-299.41413574 683.83708496 -300.55092773 683.25620117 -301.72216797 682.65771484 C-306.42518295 680.2792349 -311.17481019 678.00601096 -315.9375 675.75 C-325.69295338 671.11590046 -335.4130482 666.41185551 -345.125 661.6875 C-357.12236404 655.8527656 -369.12666191 650.03311303 -381.14477539 644.24121094 C-387.48671025 641.18353132 -393.82320984 638.11531709 -400.15234375 635.03125 C-412.88694623 628.82918467 -425.62901845 622.66584898 -438.5 616.75 C-451.15473151 610.93276395 -463.65981228 604.82547559 -476.16439819 598.69342041 C-488.40318291 592.69423456 -500.67937617 586.80326743 -513.07421875 581.1328125 C-518.22962534 578.77155757 -523.37213662 576.38345109 -528.48046875 573.921875 C-529.43203857 573.46651367 -530.3836084 573.01115234 -531.36401367 572.54199219 C-539.5086371 567.7775723 -544.20821555 559.54647676 -547.03115845 550.80804443 C-547.99360143 547.02514965 -548.26568847 543.84701322 -548.29052734 539.95410156 C-548.29724457 539.28799866 -548.30396179 538.62189575 -548.31088257 537.93560791 C-548.329734 535.75386905 -548.33378043 533.57244002 -548.3359375 531.390625 C-548.34237536 529.85756306 -548.34910443 528.32450232 -548.35610962 526.79144287 C-548.36805101 523.58391475 -548.37179379 520.37649407 -548.37060547 517.16894531 C-548.37040269 513.08612871 -548.39767612 509.00401134 -548.43214989 504.92136002 C-548.45453931 501.7554822 -548.45843932 498.58976932 -548.45738602 495.4238205 C-548.45972501 493.92011868 -548.46845104 492.41641111 -548.48405075 490.91278839 C-548.59622541 478.98207029 -547.46137463 468.9862269 -539.07421875 459.94921875 C-538.38972656 459.30597656 -537.70523438 458.66273438 -537 458 C-536.5375589 457.54992081 -536.0751178 457.09984161 -535.59866333 456.63612366 C-530.9839117 452.37752739 -526.40121292 450.1851656 -520.54296875 448.046875 C-519.19021599 447.52918549 -519.19021599 447.52918549 -517.81013489 447.0010376 C-514.94092206 445.90358955 -512.06533463 444.82461759 -509.1875 443.75 C-484.92001075 434.68330085 -463.36091622 423.39739767 -444 406 C-442.65035156 404.79537109 -442.65035156 404.79537109 -441.2734375 403.56640625 C-433.43902246 396.18071157 -428.16964355 387.57535683 -422.87451172 378.2878418 C-422.25592285 377.202854 -421.63733398 376.11786621 -421 375 C-421.66541306 375.00222061 -422.33082611 375.00444122 -423.0164032 375.00672913 C-429.94314029 375.02885574 -436.86986734 375.04393748 -443.79663086 375.05493164 C-446.38159595 375.05995981 -448.96655819 375.06678319 -451.55151367 375.07543945 C-455.2674225 375.08757129 -458.98329372 375.0932435 -462.69921875 375.09765625 C-464.43228523 375.10539818 -464.43228523 375.10539818 -466.20036316 375.11329651 C-467.28110611 375.11337204 -468.36184906 375.11344757 -469.4753418 375.11352539 C-470.42354294 375.115746 -471.37174408 375.11796661 -472.34867859 375.12025452 C-474.99853169 375.0000666 -477.40829833 374.54113114 -480 374 C-482.33330827 373.98918513 -484.6666883 373.98995345 -487 374 C-524.6548829 370.72191168 -563.23311551 360.68059285 -598 346 C-599.39653809 345.41460449 -599.39653809 345.41460449 -600.82128906 344.81738281 C-643.25457124 326.91691025 -682.74266913 303.0628946 -716 271 C-716.81807129 270.21979492 -717.63614258 269.43958984 -718.47900391 268.63574219 C-756.9321486 231.81377618 -756.9321486 231.81377618 -759 212 C-758.98396432 202.13805752 -756.66204531 193.98472027 -749.8203125 186.78515625 C-749.21960938 186.19605469 -748.61890625 185.60695312 -748 185 C-747.50242187 184.50371094 -747.00484375 184.00742188 -746.4921875 183.49609375 C-740.14650247 177.68788477 -732.20449354 176.46893247 -724 175.375 C-723.14921875 175.25382813 -722.2984375 175.13265625 -721.421875 175.0078125 C-717.60831786 174.46970321 -713.79088938 173.96909779 -709.96875 173.49609375 C-669.39613013 168.42451627 -629.38431275 160.27480948 -589.6206665 150.87194824 C-586.41571894 150.1156199 -583.20935187 149.36541375 -580.00291824 148.61541462 C-576.09001644 147.70004135 -572.17772846 146.78205983 -568.265625 145.86328125 C-567.55447792 145.69630548 -566.84333084 145.52932972 -566.11063385 145.35729408 C-564.05553179 144.87406293 -562.00078778 144.38935412 -559.94628906 143.90356445 C-559.29144657 143.74880803 -558.63660408 143.59405161 -557.96191788 143.4346056 C-554.53045804 142.61859523 -551.10651103 141.77866877 -547.68859863 140.90756226 C-546.97706509 140.72665385 -546.26553154 140.54574545 -545.53243637 140.35935497 C-543.56810433 139.8575657 -541.60513812 139.35043825 -539.64227295 138.84294128 C-535.99846384 137.99964448 -532.39455492 137.42264558 -528.6875 136.9375 C-519.44684904 135.70891345 -512.18086396 134.12830742 -504.5859375 128.6171875 C-500.22351004 125.8890229 -495.43855397 124.21718563 -490.6484375 122.39453125 C-484.62696869 120.09296341 -479.37318983 117.62377919 -474 114 C-473.34 114 -472.68 114 -472 114 C-472 113.34 -472 112.68 -472 112 C-471.17910889 111.67314209 -470.35821777 111.34628418 -469.51245117 111.00952148 C-466.40931328 109.76769859 -463.31057545 108.51589392 -460.21411133 107.25756836 C-458.88431209 106.71946504 -457.55297113 106.18515293 -456.2199707 105.6550293 C-447.55775488 102.20645599 -439.75844033 98.22238257 -432 93 C-429.08153969 91.24023007 -426.10353173 89.58979131 -423.12939453 87.92602539 C-419.78568552 86.04524536 -416.57055186 84.05659612 -413.375 81.9375 C-407.76942432 78.47495743 -401.50508218 76.64984139 -395.21826172 74.79858398 C-390.67987048 73.36241215 -387.84449433 72.14116091 -384.74609375 68.46875 C-380.04075556 63.32618108 -373.86507438 62.98986052 -367.25 61.9375 C-365.86740072 61.69626223 -364.48524589 61.45246524 -363.10351562 61.20629883 C-359.46355428 60.56482895 -355.81886946 59.95668997 -352.17163086 59.3581543 C-348.72142121 58.78913152 -345.27484219 58.19912379 -341.828125 57.609375 C-340.45476271 57.37461536 -339.08139022 57.13991538 -337.70800781 56.90527344 C-337.01856079 56.78744507 -336.32911377 56.6696167 -335.61877441 56.54821777 C-333.46081328 56.18082853 -331.30222521 55.81729731 -329.14355469 55.45410156 C-316.89269336 53.38217385 -304.69698552 51.05375999 -292.5 48.6875 C-270.48688148 44.42112928 -248.42301237 40.48689251 -226.33450317 36.63238525 C-215.59382088 34.75752474 -204.85907004 32.84979642 -194.125 30.9375 C-190.43882146 30.28114114 -186.75261501 29.6249391 -183.06640625 28.96875 C-181.70458977 28.72626526 -181.70458977 28.72626526 -180.31526184 28.47888184 C-173.71998041 27.30492035 -167.12380596 26.13605624 -160.52734375 24.96875 C-142.26364813 21.73487603 -124.00879096 18.46404755 -105.77331543 15.07449341 C-90.33319257 12.2082804 -74.86498795 9.51011431 -59.38647461 6.85961914 C-51.12105429 5.44053649 -42.86396154 4.01525646 -34.64453125 2.34765625 C-22.67023402 -0.07015353 -12.16034244 -1.84330983 0 0 Z " fill="#000000" transform="translate(959,26)"/>
<path d="M0 0 C-0.19130641 3.59454677 -0.41589513 7.18191556 -0.70703125 10.76953125 C-0.92248864 13.47416967 -0.98602293 16.0353783 -0.94921875 18.76171875 C-1.21976087 27.24181476 -1.21976087 27.24181476 -4.41894531 30.40136719 C-8.28722681 33.30420182 -12.54686924 35.50027548 -16.80859375 37.76269531 C-20.31644167 39.74328503 -23.48294902 42.13093981 -26.6875 44.5625 C-27.93142757 45.49334335 -29.17620911 46.42304668 -30.421875 47.3515625 C-31.02193359 47.79918945 -31.62199219 48.24681641 -32.24023438 48.70800781 C-34.92897189 50.68203652 -37.68233494 52.55774453 -40.4375 54.4375 C-53.01703499 63.08593031 -65.07735972 72.47283484 -77 82 C-77.63405762 82.50644043 -78.26811523 83.01288086 -78.92138672 83.53466797 C-99.4430576 99.96920302 -118.72185291 117.53434214 -137.30908203 136.1237793 C-139.38946217 138.20194679 -141.4777766 140.27192445 -143.56640625 142.34179688 C-150.84079848 149.58565363 -157.71270661 156.86967008 -164 165 C-164.92735024 166.15447812 -165.85557758 167.30825294 -166.78515625 168.4609375 C-172.41773217 175.66831595 -177.44582876 183.05201149 -182 191 C-182.36480469 191.62326172 -182.72960937 192.24652344 -183.10546875 192.88867188 C-189.78527134 204.39024322 -194.404835 216.20264963 -198 229 C-198.19352051 229.68884277 -198.38704102 230.37768555 -198.58642578 231.08740234 C-205.37036656 256.62275154 -201.27316495 285.60480937 -189.125 308.875 C-169.19162672 343.09827204 -136.72959209 362.54978365 -100.671875 375.95703125 C-98.36147192 376.85889912 -96.2060885 377.87491837 -94 379 C-96.94191892 380.25124423 -99.90493177 381.44230816 -102.875 382.625 C-103.69742187 382.975625 -104.51984375 383.32625 -105.3671875 383.6875 C-116.45686966 388.01940709 -125.77008531 383.20443804 -136.375 379.1875 C-137.66962817 378.70464091 -138.96464205 378.22281492 -140.26000977 377.74194336 C-143.0334479 376.7121831 -145.80588361 375.67979477 -148.57763672 374.64550781 C-155.57565016 372.03809419 -162.5864379 369.46601052 -169.60455322 366.91323853 C-171.87227054 366.08628675 -174.13705698 365.25165337 -176.40185547 364.41674805 C-194.59390219 357.1685381 -194.59390219 357.1685381 -213.6875 356.9375 C-214.52289307 357.08791748 -215.35828613 357.23833496 -216.21899414 357.39331055 C-218.82490928 357.8822092 -221.41116286 358.42786503 -224 359 C-225.24040039 359.27408691 -225.24040039 359.27408691 -226.50585938 359.55371094 C-232.37796531 360.88870114 -238.19280799 362.40829994 -244 364 C-245.27012939 364.34635498 -245.27012939 364.34635498 -246.56591797 364.69970703 C-257.18921724 367.61775506 -267.71908955 370.79924062 -278.20214844 374.18530273 C-283.49816896 375.89487744 -288.80501594 377.55591254 -294.1328125 379.1640625 C-305.31654466 382.54575257 -316.49974523 385.94199978 -327.4375 390.0625 C-328.22914551 390.342146 -329.02079102 390.62179199 -329.83642578 390.90991211 C-339.32393133 394.64675098 -343.2151322 403.45736796 -347.14453125 412.3671875 C-352.69240445 425.75451127 -356.51737494 439.92690061 -360.375 453.875 C-360.61355713 454.73488525 -360.85211426 455.59477051 -361.09790039 456.48071289 C-361.32082764 457.30949951 -361.54375488 458.13828613 -361.7734375 458.9921875 C-361.99209473 459.80324951 -362.21075195 460.61431152 -362.43603516 461.44995117 C-363.06191382 464.04438228 -363.06191382 464.04438228 -363.29443359 466.91918945 C-364.07065826 474.15613056 -364.07065826 474.15613056 -366.67236328 476.51855469 C-369.0293741 477.73727015 -371.35618362 478.60276383 -373.875 479.4375 C-375.76793509 480.15228412 -377.6598052 480.86989294 -379.55078125 481.58984375 C-380.57768066 481.96608887 -381.60458008 482.34233398 -382.66259766 482.72998047 C-386.31316724 484.11917308 -389.90014261 485.63259743 -393.48046875 487.19140625 C-394.42493866 487.60246864 -394.42493866 487.60246864 -395.38848877 488.02183533 C-396.6540467 488.5737893 -397.91934773 489.12633268 -399.18438721 489.67947388 C-402.19305775 490.99392782 -405.20625653 492.29709317 -408.22265625 493.59375 C-409.24109619 494.03396484 -410.25953613 494.47417969 -411.30883789 494.92773438 C-413.54583556 495.81904289 -415.65096138 496.49890909 -418 497 C-417.70564371 488.24290033 -416.52059494 479.9756143 -414.78955078 471.41333008 C-413.11550505 462.97073003 -411.80489136 454.48777451 -410.50527954 445.98162842 C-407.52560394 426.5368599 -403.80202431 407.35529218 -399.45639038 388.16491699 C-398.91194734 385.7601889 -398.36975929 383.35495918 -397.82763672 380.94970703 C-397.13404 377.87393632 -396.42889171 374.80117471 -395.71533203 371.72998047 C-392.3831778 357.21465701 -390.63862858 342.9930702 -390.68432617 328.09057617 C-390.68750483 325.93422599 -390.66382044 323.77923128 -390.63867188 321.62304688 C-390.52219366 296.03545524 -399.05105493 272.69623803 -416.20534515 253.67286777 C-418.05610346 251.86351131 -418.05610346 251.86351131 -420.66751862 250.17856503 C-428.36327211 244.7949713 -428.36327211 244.7949713 -430.03927612 240.07022285 C-430.4428359 236.61944776 -430.51021736 233.31021463 -430.45507812 229.83618164 C-430.47756622 228.54395187 -430.50005432 227.25172211 -430.52322388 225.92033386 C-430.58156706 222.39857862 -430.57081001 218.88028217 -430.54344368 215.35827184 C-430.52708007 212.40845639 -430.5454138 209.45926355 -430.5636878 206.50949091 C-430.60644863 199.54553813 -430.59352572 192.58325003 -430.54394531 185.61938477 C-430.49378223 178.45659899 -430.53072881 171.29808794 -430.61187029 164.13568217 C-430.67907107 157.96521143 -430.69529009 151.79605498 -430.67052412 145.62526792 C-430.65605175 141.94876754 -430.65948799 138.27469158 -430.71070862 134.59846687 C-431.00788497 110.66524676 -431.00788497 110.66524676 -426.29219055 105.02682495 C-423.16901107 102.17477456 -419.90865947 100.57138255 -416 99 C-414.80985794 98.45733238 -414.80985794 98.45733238 -413.59567261 97.90370178 C-411.57596617 97.11350731 -409.66575298 96.61891887 -407.54296875 96.1875 C-406.79299118 96.00630615 -406.04301361 95.8251123 -405.27030945 95.63842773 C-402.85282586 95.06188 -400.42782642 94.53110016 -398 94 C-396.3164674 93.60475477 -394.63369655 93.20625239 -392.95166016 92.8046875 C-388.40029022 91.72694589 -383.84053535 90.69054487 -379.2769165 89.66604614 C-374.01939698 88.48478481 -368.76568151 87.28680843 -363.51171875 86.08984375 C-362.41089966 85.83927719 -361.31008057 85.58871063 -360.17590332 85.33055115 C-347.64374674 82.47234099 -335.13298391 79.52444706 -322.625 76.5625 C-321.47384705 76.28994385 -320.32269409 76.0173877 -319.13665771 75.73657227 C-295.48025468 70.13207732 -271.83937411 64.46308037 -248.20379639 58.77148438 C-244.92903465 57.98291132 -241.65422124 57.19455318 -238.37939453 56.40625 C-231.58622327 54.77099843 -224.79310685 53.13551913 -218 51.5 C-210.09531207 49.59685486 -202.19059756 47.69382021 -194.28582764 45.79101562 C-191.07088948 45.01706562 -187.8559997 44.2429149 -184.64111328 43.46875 C-178.44857509 41.97778081 -172.25569326 40.48824581 -166.0625 39 C-164.54083725 38.63432419 -164.54083725 38.63432419 -162.98843384 38.26126099 C-145.23558534 33.99729047 -127.46696488 29.8015072 -109.69573975 25.61489868 C-92.00290449 21.44451794 -74.33647444 17.1752986 -56.68481445 12.83422852 C-43.49625925 9.59341069 -30.28789464 6.44519931 -17.05932617 3.37182617 C-16.3951619 3.21708328 -15.73099762 3.06234039 -15.04670715 2.90290833 C-13.28063469 2.49171674 -11.51411431 2.08245031 -9.74755859 1.67333984 C-2.91950689 0 -2.91950689 0 0 0 Z " fill="#FFFFFF" transform="translate(1133,100)"/>
<path d="M0 0 C16.24805774 15.79582552 19.65947085 37.42462631 20.00292969 59.07714844 C19.89470806 67.12717255 18.4336587 75.01580096 16.96484375 82.91015625 C16.79710449 83.83151367 16.62936523 84.75287109 16.45654297 85.70214844 C14.62491169 95.63267945 12.57252801 105.50147349 10.1796875 115.3125 C4.27734763 139.63818024 0.34429717 164.18362357 -3.47723389 188.91316223 C-4.69515945 196.77880566 -5.94586916 204.63842673 -7.23828125 212.4921875 C-7.40430847 213.51487228 -7.57033569 214.53755707 -7.74139404 215.5912323 C-7.89666565 216.52639175 -8.05193726 217.46155121 -8.21191406 218.42504883 C-8.3472052 219.24620682 -8.48249634 220.06736481 -8.62188721 220.91340637 C-9.03515625 222.91015625 -9.03515625 222.91015625 -10.03515625 224.91015625 C-17.83549836 222.59160152 -25.03872028 219.22634447 -32.36096191 215.73052979 C-35.93860564 214.0229851 -39.52435459 212.33261273 -43.109375 210.640625 C-43.80785553 210.31050415 -44.50633606 209.9803833 -45.22598267 209.64025879 C-52.4120529 206.24903388 -59.66494714 203.02090636 -66.94238281 199.83154297 C-79.09464165 194.48126009 -91.16533249 188.94589422 -103.23071289 183.40332031 C-108.9906219 180.75895549 -114.7552432 178.12543265 -120.52734375 175.5078125 C-121.17814407 175.21267258 -121.8289444 174.91753265 -122.49946594 174.6134491 C-123.49178474 174.16344292 -123.49178474 174.16344292 -124.50415039 173.7043457 C-144.02598709 164.85111008 -163.50495936 155.90617756 -182.94714355 146.8793335 C-184.89173903 145.97672515 -186.83692938 145.07541113 -188.78222656 144.17431641 C-191.8283979 142.76030761 -194.8703576 141.33780109 -197.91015625 139.91015625 C-198.75352539 139.51916748 -199.59689453 139.12817871 -200.46582031 138.7253418 C-205.91891441 136.14263994 -205.91891441 136.14263994 -207.03515625 133.91015625 C-206.22232178 133.54216919 -206.22232178 133.54216919 -205.39306641 133.16674805 C-187.99653283 125.23408992 -171.40335817 116.70249087 -157.03515625 103.91015625 C-156.2565625 103.23984375 -155.47796875 102.56953125 -154.67578125 101.87890625 C-126.0947969 76.84719446 -105.68877408 47.79938307 -103.03515625 8.91015625 C-93.27787181 6.90547781 -83.44469863 5.66889482 -73.53857422 4.69555664 C-60.13426624 3.36271704 -46.83228953 1.47929385 -33.53515625 -0.65234375 C-6.59695545 -4.95132542 -6.59695545 -4.95132542 0 0 Z " fill="#FFFFFF" transform="translate(692.03515625,372.08984375)"/>
<path d="M0 0 C0.19540786 62.86505741 0.19540786 62.86505741 -0.4375 91.5 C-0.4669722 92.93525528 -0.4669722 92.93525528 -0.49703979 94.39950562 C-0.55305395 97.04777981 -0.61648026 99.69573645 -0.68359375 102.34375 C-0.70031128 103.11660843 -0.71702881 103.88946686 -0.73425293 104.68574524 C-0.88372092 109.88372092 -0.88372092 109.88372092 -2 111 C-3.96366976 111.34743012 -5.93763162 111.63696182 -7.9140625 111.90234375 C-9.14213623 112.06943848 -10.37020996 112.2365332 -11.63549805 112.40869141 C-12.96529916 112.58520877 -14.29513386 112.7614732 -15.625 112.9375 C-16.97635549 113.1187012 -18.32767386 113.30017935 -19.67895508 113.48193359 C-22.31032557 113.83553616 -24.94194018 114.18711071 -27.57373047 114.53759766 C-30.16809594 114.88772793 -32.75861198 115.24997082 -35.34765625 115.63671875 C-44.5582031 116.98328993 -53.79731165 117.65655859 -63.08081055 118.30322266 C-64.16015869 118.37976074 -65.23950684 118.45629883 -66.3515625 118.53515625 C-67.80296631 118.63389038 -67.80296631 118.63389038 -69.28369141 118.73461914 C-71.97865598 118.94916831 -71.97865598 118.94916831 -74.50341797 119.51855469 C-93.24788435 123.13327087 -115.13261554 119.70929713 -134 118 C-135.02512695 117.90879883 -136.05025391 117.81759766 -137.10644531 117.72363281 C-211.6995409 110.71900934 -288.11667238 75.08312133 -341 22 C-340.25951416 22.09087891 -339.51902832 22.18175781 -338.75610352 22.27539062 C-335.35888454 22.68913577 -331.96072727 23.09462308 -328.5625 23.5 C-327.39783203 23.64308594 -326.23316406 23.78617187 -325.03320312 23.93359375 C-323.88916016 24.06894531 -322.74511719 24.20429688 -321.56640625 24.34375 C-320.00321655 24.53227539 -320.00321655 24.53227539 -318.40844727 24.72460938 C-315.75456275 24.93903397 -313.23883949 25.01007443 -310.58520508 24.97973633 C-307.06600711 24.95285022 -303.68537199 25.21896207 -300.19259644 25.69563293 C-285.30296707 27.69399878 -270.23295673 27.35107317 -255.24095917 27.3172493 C-252.85604829 27.31246196 -250.47115799 27.31140994 -248.08624268 27.31100464 C-205.38231927 27.81821473 -205.38231927 27.81821473 -163.04345703 23.47949219 C-158.87929773 22.823435 -154.73985992 22.72513202 -150.53125 22.57421875 C-139.13559289 22.09240697 -127.83694529 21.03852903 -116.5 19.8125 C-115.49329254 19.70528625 -114.48658508 19.59807251 -113.44937134 19.48760986 C-95.23724903 17.53384779 -77.19389805 14.89032973 -59.15698242 11.71972656 C-56.21513731 11.20485413 -53.27015285 10.71574239 -50.3215332 10.24121094 C-42.38925341 8.96202817 -34.57662858 7.60211889 -26.8125 5.5 C-5.67142116 0 -5.67142116 0 0 0 Z " fill="#FFFFFF" transform="translate(609,235)"/>
<path d="M0 0 C3.326553 0.56538253 6.5972693 0.80104032 9.96484375 1.00390625 C14.5052139 1.28485733 18.91529983 1.75698095 23.40234375 2.50390625 C28.07692225 3.27543862 32.6722306 3.73026334 37.40234375 4.00390625 C43.20188162 4.34470989 48.84310269 5.0157162 54.58203125 5.89453125 C64.99732571 7.41117145 75.50195794 8.37406855 85.96484375 9.50390625 C85.96484375 10.16390625 85.96484375 10.82390625 85.96484375 11.50390625 C84.59102539 11.83600098 84.59102539 11.83600098 83.18945312 12.17480469 C79.7077261 13.01676233 76.22613574 13.85928095 72.74462891 14.70214844 C71.2534702 15.06304142 69.76226128 15.42372698 68.27099609 15.78417969 C61.05700987 17.5280062 53.84488729 19.27635646 46.64859009 21.0920105 C39.48775602 22.89851243 32.30875776 24.57002402 25.08984375 26.12890625 C0.70098913 31.48144219 -23.55947234 37.41548719 -47.80853271 43.36465454 C-61.76519875 46.78762206 -75.73424434 50.1566796 -89.71484375 53.48046875 C-90.47301329 53.66073734 -91.23118282 53.84100594 -92.01232719 54.02673721 C-100.19863022 55.97264016 -108.38597645 57.91406979 -116.57531261 59.84716988 C-120.96192384 60.88270355 -125.34822151 61.91956063 -129.734375 62.95703125 C-130.63488649 63.16999722 -131.53539799 63.38296318 -132.46319771 63.60238266 C-146.30045436 66.87769646 -160.12042384 70.22073927 -173.93386841 73.59498596 C-182.34435475 75.64914369 -190.75842027 77.68846833 -199.17323494 79.72481441 C-205.08419643 81.15638859 -210.99287604 82.59630251 -216.8972168 84.05496216 C-222.48162852 85.43454168 -228.07067549 86.79348144 -233.66373253 88.13756561 C-235.7316931 88.63851296 -237.79782387 89.14708515 -239.86188698 89.66385651 C-259.62560387 94.60431792 -259.62560387 94.60431792 -269.03515625 91.50390625 C-270.58666526 91.12649466 -272.1399884 90.75645987 -273.69506836 90.39404297 C-275.23533357 89.99486188 -276.77445503 89.59124575 -278.3125 89.18359375 C-279.15315506 88.96400497 -279.99381012 88.7444162 -280.85993958 88.51817322 C-283.56541071 87.80968155 -286.26910276 87.09467763 -288.97265625 86.37890625 C-289.90444702 86.13369232 -290.83623779 85.88847839 -291.79626465 85.63583374 C-304.25915109 82.35603551 -316.67946891 78.96231749 -329.05517578 75.36621094 C-340.24791589 72.12130622 -351.50648433 69.14242601 -362.7734375 66.16796875 C-367.20965241 64.9958432 -371.63124374 63.7919043 -376.03515625 62.50390625 C-375.70515625 61.84390625 -375.37515625 61.18390625 -375.03515625 60.50390625 C-373.26708984 59.97314453 -373.26708984 59.97314453 -370.93359375 59.57421875 C-370.06323486 59.42090088 -369.19287598 59.26758301 -368.29614258 59.10961914 C-367.34376709 58.95098389 -366.3913916 58.79234863 -365.41015625 58.62890625 C-364.42104248 58.45673584 -363.43192871 58.28456543 -362.4128418 58.10717773 C-359.28826658 57.56474931 -356.16185677 57.03393028 -353.03515625 56.50390625 C-349.30541561 55.86137453 -345.57655019 55.21383126 -341.84765625 54.56640625 C-340.90059814 54.40269531 -339.95354004 54.23898438 -338.9777832 54.0703125 C-324.43791279 51.54775595 -309.93513939 48.81614895 -295.4375 46.0625 C-282.60948121 43.63071013 -269.77801634 41.25799898 -256.90436745 39.08087158 C-238.62019967 35.98508426 -220.36780276 32.72136524 -202.1206665 29.41534424 C-199.08373123 28.86562805 -196.0464425 28.31787889 -193.00915718 27.77010059 C-177.02443451 24.88643876 -161.04970492 21.95603766 -145.08808327 18.94708824 C-133.7523089 16.81134785 -122.4029327 14.77374851 -111.03515625 12.81640625 C-107.76407387 12.25143061 -104.49324387 11.68502018 -101.22265625 11.1171875 C-100.44347839 10.98197189 -99.66430054 10.84675629 -98.86151123 10.70744324 C-92.44019524 9.58719533 -86.03535546 8.38823663 -79.63085938 7.17602539 C-73.71126648 6.06951811 -67.77413495 5.07017783 -61.8359375 4.06933594 C-57.17051119 3.27002525 -52.538893 2.42248265 -47.92578125 1.359375 C-32.05580756 -2.26827258 -16.07425303 -3.02052324 0 0 Z " fill="#FFFFFF" transform="translate(971.03515625,74.49609375)"/>
<path d="M0 0 C0.8660939 0.26275223 1.73218781 0.52550446 2.62452698 0.79621887 C5.43616865 1.65069578 8.24546229 2.51261503 11.0546875 3.375 C13.00486151 3.96998184 14.955139 4.56462462 16.90551758 5.15893555 C21.71346034 6.62565755 26.5193393 8.09900704 31.32440186 9.57513428 C33.68079252 10.29858513 36.03773319 11.02019666 38.39501953 11.74072266 C54.65550666 16.7125083 70.82806832 21.91005767 86.9296875 27.375 C40.21196167 52.40495312 -38.58195501 49.55143582 -90.0703125 53.375 C-91.01261719 53.44609985 -91.95492187 53.51719971 -92.92578125 53.5904541 C-145.1166771 57.51015079 -200.54398061 59.11901481 -252.0703125 48.375 C-252.0703125 48.045 -252.0703125 47.715 -252.0703125 47.375 C-251.51940948 47.29031967 -250.96850647 47.20563934 -250.40090942 47.11839294 C-223.64521584 42.99771365 -196.96971797 38.80169749 -170.53759766 32.92260742 C-167.84624611 32.32526906 -165.15366049 31.73370252 -162.4609375 31.14257812 C-132.93674967 24.64896379 -103.54930577 17.64584165 -74.21166992 10.36328125 C-72.96439621 10.05366959 -71.7171225 9.74405792 -70.43205261 9.42506409 C-68.11776971 8.84983476 -65.80378654 8.27339741 -63.4901886 7.69541931 C-58.01531532 6.33195256 -52.53463978 4.9956965 -47.04296875 3.70141602 C-46.00148682 3.45577408 -44.96000488 3.21013214 -43.88696289 2.95704651 C-41.48047695 2.4597584 -39.20557604 2.14746433 -36.7578125 2 C-31.57832883 1.57718501 -26.77436294 -0.22379251 -21.91674805 -1.98583984 C-14.14898389 -4.64759497 -7.52657887 -2.32197456 0 0 Z " fill="#FEFEFE" transform="translate(515.0703125,186.625)"/>
<path d="M0 0 C4.75459238 1.58486413 9.12507534 3.37065241 13.6171875 5.52734375 C14.34227005 5.87186081 15.0673526 6.21637787 15.81440735 6.57133484 C17.36469084 7.30819817 18.91427911 8.04652568 20.46322632 8.78619385 C24.54857749 10.73641413 28.63975071 12.6743502 32.73046875 14.61328125 C33.5396022 14.99707947 34.34873566 15.38087769 35.18238831 15.77630615 C45.40733932 20.62214062 55.69718186 25.32250161 66 30 C67.21780617 30.55347617 68.43557801 31.10702787 69.65332031 31.66064453 C70.61010178 32.09562004 70.61010178 32.09562004 71.58621216 32.53938293 C72.24096527 32.83705063 72.89571838 33.13471832 73.5703125 33.44140625 C77.7246693 35.32996474 81.87927293 37.21797494 86.03466797 39.10424805 C93.23727561 42.37457527 100.4355536 45.65395392 107.625 48.953125 C122.56595161 55.80725654 137.53112603 62.59614844 152.5625 69.25 C166.03513443 75.21423183 179.44325654 81.29835527 192.80126953 87.51611328 C196.30987648 89.14375128 199.82421163 90.75870975 203.33984375 92.37109375 C204.55975592 92.93126535 205.77964551 93.49148613 206.99951172 94.05175781 C209.3298802 95.12161315 211.66090891 96.19003185 213.99267578 97.25683594 C215.02763184 97.73282227 216.06258789 98.20880859 217.12890625 98.69921875 C218.04744385 99.12033936 218.96598145 99.54145996 219.91235352 99.9753418 C222 101 222 101 223 102 C223.08855161 104.6662603 223.11524673 107.30647114 223.09765625 109.97265625 C223.09553383 111.16912025 223.09553383 111.16912025 223.09336853 112.38975525 C223.08775316 114.94737435 223.07519812 117.50490718 223.0625 120.0625 C223.05748698 121.79231645 223.05292373 123.52213426 223.04882812 125.25195312 C223.03777875 129.50133553 223.02050386 133.75065312 223 138 C199.88678985 127.08494134 176.87431366 115.97594296 153.91601562 104.73925781 C136.96733259 96.4441489 120.00162854 88.18606369 103 80 C102.01660645 79.52626953 101.03321289 79.05253906 100.02001953 78.56445312 C87.11108059 72.35176164 74.15268194 66.24676432 61.18444824 60.15921021 C49.70063114 54.76642634 38.2597461 49.29027001 26.8425293 43.75805664 C17.92526537 39.43849085 8.97665663 35.19469936 0 31 C0 20.77 0 10.54 0 0 Z " fill="#FFFFFF" transform="translate(458,530)"/>
<path d="M0 0 C0 17.49 0 34.98 0 53 C-4.33898437 54.43472656 -8.67796875 55.86945312 -13.1484375 57.34765625 C-15.9376714 58.27227643 -18.72680759 59.19717351 -21.515625 60.12304688 C-25.91807058 61.58460823 -30.32079668 63.04527054 -34.72558594 64.49975586 C-38.97237559 65.90237553 -43.21749276 67.30994895 -47.4609375 68.72265625 C-48.49539127 69.06693602 -48.49539127 69.06693602 -49.5507431 69.41817093 C-58.28669513 72.33307018 -66.96896482 75.33800534 -75.4703064 78.8921051 C-80.22905135 80.85124161 -84.96975727 82.01390308 -90 83 C-90.19361221 75.52553454 -90.37101689 68.0508109 -90.53710938 60.57568359 C-90.59554064 58.03230057 -90.65769438 55.48900025 -90.72363281 52.94580078 C-90.81771836 49.29214534 -90.89845275 45.63840253 -90.9765625 41.984375 C-91.00875885 40.84570984 -91.0409552 39.70704468 -91.0741272 38.53387451 C-91.09429901 37.47307678 -91.11447083 36.41227905 -91.13525391 35.31933594 C-91.16856308 33.92035065 -91.16856308 33.92035065 -91.20254517 32.49310303 C-90.98543016 29.82066173 -90.44068043 28.24673256 -89 26 C-87.08789062 24.95776367 -87.08789062 24.95776367 -84.65625 24.16796875 C-83.70097412 23.85158447 -82.74569824 23.5352002 -81.76147461 23.20922852 C-80.68518799 22.87205811 -79.60890137 22.5348877 -78.5 22.1875 C-77.36248291 21.82003662 -76.22496582 21.45257324 -75.05297852 21.07397461 C-70.71251642 19.68168653 -66.35718645 18.33888037 -62 17 C-61.04051453 16.70492554 -60.08102905 16.40985107 -59.09246826 16.10583496 C-51.38022987 13.73784721 -43.66068238 11.3945225 -35.9375 9.0625 C-34.83196777 8.72785736 -33.72643555 8.39321472 -32.58740234 8.0484314 C-29.38149514 7.08020299 -26.17356501 6.11901262 -22.96484375 5.16015625 C-22.00831406 4.87091278 -21.05178436 4.58166931 -20.06626892 4.28366089 C-5.64135757 0 -5.64135757 0 0 0 Z " fill="#FFFFFF" transform="translate(914,490)"/>
<path d="M0 0 C0.65508545 0.27440918 1.3101709 0.54881836 1.98510742 0.83154297 C5.94966606 2.51198361 9.81643478 4.33413337 13.6328125 6.32421875 C18.50318157 8.73902517 23.66411639 10.55850593 28.74609375 12.47265625 C34.14980337 14.5154459 39.37108132 16.60350909 44.484375 19.2890625 C46.89638001 20.43897187 49.35252731 21.30674836 51.875 22.1875 C57.33753245 24.11633904 62.37000363 26.57695977 67.5 29.25 C69.37345553 30.19058261 71.24841906 31.12816856 73.125 32.0625 C75.3125 33.15625 75.3125 33.15625 77.5 34.25 C78.06658807 37.72647249 78.20822059 40.78532372 77.5 44.25 C75.03194869 47.36216806 71.84699222 49.16882853 68.5 51.25 C67.35165486 52.05447901 66.20732019 52.86470381 65.06640625 53.6796875 C63.85820496 54.51769644 62.6485717 55.35364468 61.4375 56.1875 C60.87272949 56.58976807 60.30795898 56.99203613 59.72607422 57.40649414 C55.04112819 60.49769668 51.92207224 60.79728513 46.5 60.25 C45.015 59.26 45.015 59.26 43.5 58.25 C41.36170261 57.69056173 39.22058729 57.30712853 37.046875 56.91015625 C34.46034344 56.23972092 32.12957618 55.26946729 29.69091797 54.1887207 C24.75433859 52.07359392 19.70420576 50.22755558 14.6875 48.3125 C7.64319484 45.61992032 0.60842477 42.91199136 -6.38793945 40.09692383 C-8.97771475 39.0584392 -11.58014728 38.05595848 -14.1875 37.0625 C-24.31403842 33.18269371 -34.40382995 29.20798849 -44.5 25.25 C-44.72226864 23.48086176 -44.92733873 21.70955629 -45.125 19.9375 C-45.24101563 18.95136719 -45.35703125 17.96523437 -45.4765625 16.94921875 C-45.5 14.25 -45.5 14.25 -43.5 11.25 C-41.05747561 9.88300246 -38.64737119 8.6370793 -36.125 7.4375 C-34.66897321 6.73368831 -33.21324655 6.02925537 -31.7578125 5.32421875 C-30.6754834 4.80287354 -30.6754834 4.80287354 -29.57128906 4.27099609 C-27.71116684 3.35409002 -25.88056852 2.3778572 -24.0546875 1.39453125 C-23.04664063 0.85183594 -22.03859375 0.30914062 -21 -0.25 C-20.1234375 -0.7346875 -19.246875 -1.219375 -18.34375 -1.71875 C-11.72587411 -4.11863906 -6.24398956 -2.73760503 0 0 Z " fill="#FBFBFB" transform="translate(578.5,152.75)"/>
<path d="M0 0 C0.15581025 8.24251637 0.30392862 16.48512394 0.4429636 24.72793865 C0.50779082 28.55787773 0.57499617 32.38774031 0.64819336 36.2175293 C0.94272024 51.71087455 1.16505126 67.1241939 0.23803711 82.60327148 C-0.13808175 88.96532243 -0.07447632 95.31605099 0 101.6875 C0.02538478 104.00386084 0.04645999 106.32027435 0.0625 108.63671875 C0.07410156 109.62373779 0.08570313 110.61075684 0.09765625 111.62768555 C0 114 0 114 -1 116 C-3.22143555 116.59423828 -3.22143555 116.59423828 -6.13671875 117.0703125 C-7.71549805 117.33134766 -7.71549805 117.33134766 -9.32617188 117.59765625 C-10.9900293 117.85869141 -10.9900293 117.85869141 -12.6875 118.125 C-13.77740234 118.30675781 -14.86730469 118.48851562 -15.99023438 118.67578125 C-21.13962537 119.50946232 -25.7413268 120 -31 120 C-31 82.05 -31 44.1 -31 5 C-5 0 -5 0 0 0 Z " fill="#FFFFFF" transform="translate(672,222)"/>
<path d="M0 0 C11.25 3.375 11.25 3.375 15.54150391 4.90112305 C16.50174469 5.24124924 17.46198547 5.58137543 18.45132446 5.93180847 C19.44965302 6.28817886 20.44798157 6.64454926 21.4765625 7.01171875 C22.52782318 7.38480667 23.57908386 7.75789459 24.66220093 8.14228821 C27.98394903 9.32174636 31.30448874 10.50456485 34.625 11.6875 C36.89184771 12.49306193 39.15877405 13.29840262 41.42578125 14.10351562 C46.95158375 16.0660446 52.47573574 18.03312377 58 20 C58 31.55 58 43.1 58 55 C52.39 54.34 46.78 53.68 41 53 C38.08376173 52.6835272 35.1671943 52.37003554 32.25 52.0625 C25.31608281 51.30810104 18.40673459 50.40909138 11.5 49.4375 C10.58508789 49.31060791 9.67017578 49.18371582 8.72753906 49.05297852 C7.87901367 48.93108154 7.03048828 48.80918457 6.15625 48.68359375 C5.40150391 48.57587646 4.64675781 48.46815918 3.86914062 48.35717773 C2 48 2 48 0 47 C0 31.49 0 15.98 0 0 Z " fill="#FFFFFF" transform="translate(946,494)"/>
<path d="M0 0 C0 13.53 0 27.06 0 41 C-2.84625 42.134375 -5.6925 43.26875 -8.625 44.4375 C-17.18164252 47.85172682 -25.71309051 51.3244649 -34.22314453 54.85327148 C-51.56665614 62 -51.56665614 62 -55 62 C-56.30870619 53.73593224 -55.69846555 45.73053 -55.0625 37.4375 C-54.96084195 36.03325697 -54.85992467 34.62896012 -54.75976562 33.22460938 C-54.51376958 29.81580706 -54.2603196 26.40773333 -54 23 C-40.17502998 16.79657159 -26.32863608 10.65858772 -12.375 4.75 C-11.24980957 4.27264404 -10.12461914 3.79528809 -8.96533203 3.3034668 C-1.1282346 0 -1.1282346 0 0 0 Z " fill="#FFFFFF" transform="translate(768,609)"/>
<path d="M0 0 C1.94693492 26.62565059 1.94693492 26.62565059 -1 32 C-4.43864431 34.53204386 -8.02511637 35.95464195 -12.0546875 37.3203125 C-14.11231369 38.03924213 -16.11363613 38.84817147 -18.125 39.6875 C-28.4870819 44 -28.4870819 44 -31 44 C-31.33 33.44 -31.66 22.88 -32 12 C-19.3125 7.125 -19.3125 7.125 -15.3371582 5.59814453 C-14.29390381 5.19708496 -13.25064941 4.79602539 -12.17578125 4.3828125 C-10.58117065 3.77010498 -10.58117065 3.77010498 -8.9543457 3.14501953 C-7.02220159 2.39617597 -5.09587611 1.63209624 -3.17651367 0.85107422 C-1 0 -1 0 0 0 Z " fill="#FFFFFF" transform="translate(1067,501)"/>
<path d="" fill="#000000" transform="translate(0,0)"/>
</svg>
